<?xml version="1.0" encoding="utf-8"?>
<!-- Generator: Adobe Illustrator 18.1.1, SVG Export Plug-In . SVG Version: 6.00 Build 0)  -->
<!DOCTYPE svg PUBLIC "-//W3C//DTD SVG 1.1//EN" "http://www.w3.org/Graphics/SVG/1.1/DTD/svg11.dtd">
<svg version="1.1" id="Layer_1" xmlns="http://www.w3.org/2000/svg" xmlns:xlink="http://www.w3.org/1999/xlink" x="0px" y="0px"
	 viewBox="0 0 26 22.2" enable-background="new 0 0 26 22.2" xml:space="preserve">
<path fill="#637582" d="M14.9,22.2c-0.2,0-0.3-0.1-0.4-0.2l-3-4c-0.1-0.1-0.1-0.2-0.1-0.3V9.5L0.2,0.9C0,0.8,0,0.5,0,0.3
	C0.1,0.1,0.3,0,0.5,0h25c0.2,0,0.4,0.1,0.5,0.3s0,0.4-0.2,0.6L15.4,9.4v12.3c0,0.2-0.1,0.4-0.3,0.5C15,22.2,15,22.2,14.9,22.2z
	 M12.4,17.5l2,2.7v-11c0-0.1,0.1-0.3,0.2-0.4L24.1,1H2l10.3,7.8c0.1,0.1,0.2,0.2,0.2,0.4V17.5z"/>
</svg>
